<svg xmlns="http://www.w3.org/2000/svg" version="1.1" xmlns:xlink="http://www.w3.org/1999/xlink" xmlns:svgjs="http://svgjs.dev/svgjs" width="128" height="128" viewBox="0 0 128 128"><g transform="matrix(0.8046875,0,0,0.8046875,12.289873562499992,3.1533937499999922)"><svg viewBox="0 0 80 95" data-background-color="#ffffff" preserveAspectRatio="xMidYMid meet" height="152" width="128" xmlns="http://www.w3.org/2000/svg" xmlns:xlink="http://www.w3.org/1999/xlink"><g id="tight-bounds" transform="matrix(1,0,0,1,0.16320500000000493,-0.24049999999999727)"><svg viewBox="0 0 79.67358999999999 95.481" height="95.481" width="79.67358999999999"><g><svg viewBox="0 0 79.67358999999999 95.481" height="95.481" width="79.67358999999999"><g><svg viewBox="0 0 79.67358999999999 95.481" height="95.481" width="79.67358999999999"><g id="textblocktransform"><svg viewBox="0 0 79.67358999999999 95.481" height="95.481" width="79.67358999999999" id="textblock"><g><svg viewBox="0 0 79.67358999999999 95.481" height="95.481" width="79.67358999999999"><g><svg viewBox="0 0 79.67358999999999 95.481" height="95.481" width="79.67358999999999"><g><svg xmlns="http://www.w3.org/2000/svg" xmlns:xlink="http://www.w3.org/1999/xlink" version="1.1" x="0" y="0" viewBox="12.400000000000006 5 75.1 90" enable-background="new 0 0 100 100" xml:space="preserve" height="95.481" width="79.67358999999999" class="icon-icon-0" data-fill-palette-color="accent" id="icon-0"><path d="M87.5 85v-1.2c0-9.9-11.4-15.7-18.2-19.1-1.4-0.7-2.5-1.3-3.2-1.7-0.8-0.5-1.4-1.3-1.8-2.1 0.1 0 0.2 0 0.2 0 8.6 0 12.8-5.7 13-5.9 0.3-0.4 0.4-1 0.3-1.5-0.1-0.5-0.4-1-0.9-1.2-2.4-1.4-4.7-3.7-5.2-15.2 0.3-1.8 0.5-3.7 0.5-5.6C72.3 16.8 62.7 5 51 5S29.8 16.8 29.8 31.2c0 1.9 0.2 3.8 0.5 5.6-0.5 11.5-2.8 13.8-5.2 15.3-0.5 0.3-0.8 0.7-0.9 1.2-0.1 0.5 0 1.1 0.3 1.5 0.2 0.3 4.3 5.9 13 5.9 0.1 0 0.2 0 0.2 0-0.4 0.9-1 1.6-1.8 2.1-0.7 0.5-2.2 1.2-3.9 1.9-7.3 3.4-19.6 9.2-19.6 18.9v2.5h0V95h75L87.5 85 87.5 85zM36.8 41.6c-0.7-3.3-1.3-9.4 0.9-12.8 0.9-1.4 2.2-2.2 4-2.6 8.4-1.5 12.6-4.5 14.8-7.4 1.4 1.7 3.1 3.2 4.8 4.7 2.9 2.6 6 5.3 6 7.7C67.3 43 60 52.5 51 52.5 44.9 52.5 39.6 48.1 36.8 41.6zM61.6 65.6c-1.4 1-5 3.2-10.6 3.2-4.7 0-8.9-2.2-10.5-3.3 2.6-2.9 3.1-7 3.1-9.6 2.3 1.1 4.8 1.7 7.4 1.7 2.6 0 5.1-0.6 7.4-1.7C58.4 58.5 58.9 62.6 61.6 65.6zM43.8 76.4l-6.9 4.9 6.9 4.9V90L34 83.2v-3.9l9.7-6.8V76.4zM51 90h-3.9L51 72.5h3.9L51 90zM68.5 83.2L58.8 90v-3.9l6.9-4.9-6.9-4.9v-3.9l9.7 6.8V83.2z" fill="#b19dd0" data-fill-palette-color="accent"></path></svg></g></svg></g></svg></g></svg></g></svg></g><g></g></svg></g><defs></defs></svg><rect width="79.67358999999999" height="95.481" fill="none" stroke="none" visibility="hidden"></rect></g></svg></g></svg>